<svg xmlns="http://www.w3.org/2000/svg" viewBox="0 0 960 170" width="960" height="170" role="img" aria-label="Chroma subsampling">
<title>Chroma subsampling schemes J:a:b</title>
<rect x="0" y="0" width="960" height="170" rx="0" fill="#ffffff" stroke="none" stroke-width="0"/>
<text x="96" y="26" font-family="DejaVu Sans, Segoe UI, Helvetica, Arial, sans-serif" font-size="15" fill="#222" text-anchor="middle" font-weight="bold" font-style="normal">4:4:4</text>
<rect x="30" y="40" width="30" height="30" rx="7" fill="#dcecd8" stroke="#54A24B" stroke-width="1.6"/>
<circle cx="45" cy="55" r="4" fill="#54A24B"/>
<rect x="64" y="40" width="30" height="30" rx="7" fill="#dcecd8" stroke="#54A24B" stroke-width="1.6"/>
<circle cx="79" cy="55" r="4" fill="#54A24B"/>
<rect x="98" y="40" width="30" height="30" rx="7" fill="#dcecd8" stroke="#54A24B" stroke-width="1.6"/>
<circle cx="113" cy="55" r="4" fill="#54A24B"/>
<rect x="132" y="40" width="30" height="30" rx="7" fill="#dcecd8" stroke="#54A24B" stroke-width="1.6"/>
<circle cx="147" cy="55" r="4" fill="#54A24B"/>
<rect x="30" y="74" width="30" height="30" rx="7" fill="#dcecd8" stroke="#54A24B" stroke-width="1.6"/>
<circle cx="45" cy="89" r="4" fill="#54A24B"/>
<rect x="64" y="74" width="30" height="30" rx="7" fill="#dcecd8" stroke="#54A24B" stroke-width="1.6"/>
<circle cx="79" cy="89" r="4" fill="#54A24B"/>
<rect x="98" y="74" width="30" height="30" rx="7" fill="#dcecd8" stroke="#54A24B" stroke-width="1.6"/>
<circle cx="113" cy="89" r="4" fill="#54A24B"/>
<rect x="132" y="74" width="30" height="30" rx="7" fill="#dcecd8" stroke="#54A24B" stroke-width="1.6"/>
<circle cx="147" cy="89" r="4" fill="#54A24B"/>
<line x1="28" y1="38" x2="28" y2="106" stroke="#5a6a7a" stroke-width="0.8" stroke-opacity="0.6"/>
<line x1="62" y1="38" x2="62" y2="106" stroke="#5a6a7a" stroke-width="0.8" stroke-opacity="0.6"/>
<line x1="96" y1="38" x2="96" y2="106" stroke="#5a6a7a" stroke-width="0.8" stroke-opacity="0.6"/>
<line x1="130" y1="38" x2="130" y2="106" stroke="#5a6a7a" stroke-width="0.8" stroke-opacity="0.6"/>
<line x1="164" y1="38" x2="164" y2="106" stroke="#5a6a7a" stroke-width="0.8" stroke-opacity="0.6"/>
<line x1="28" y1="38" x2="164" y2="38" stroke="#5a6a7a" stroke-width="0.8" stroke-opacity="0.6"/>
<line x1="28" y1="72" x2="164" y2="72" stroke="#5a6a7a" stroke-width="0.8" stroke-opacity="0.6"/>
<line x1="28" y1="106" x2="164" y2="106" stroke="#5a6a7a" stroke-width="0.8" stroke-opacity="0.6"/>
<text x="96" y="126" font-family="DejaVu Sans, Segoe UI, Helvetica, Arial, sans-serif" font-size="12" fill="#333" text-anchor="middle" font-weight="normal" font-style="normal">a = 4, b = 4</text>
<text x="96" y="144" font-family="DejaVu Sans, Segoe UI, Helvetica, Arial, sans-serif" font-size="11" fill="#555" text-anchor="middle" font-weight="normal" font-style="normal">no subsampling</text>
<text x="96" y="160" font-family="DejaVu Sans, Segoe UI, Helvetica, Arial, sans-serif" font-size="11" fill="#555" text-anchor="middle" font-weight="normal" font-style="normal">3 values/pixel</text>
<text x="286" y="26" font-family="DejaVu Sans, Segoe UI, Helvetica, Arial, sans-serif" font-size="15" fill="#222" text-anchor="middle" font-weight="bold" font-style="normal">4:2:2</text>
<rect x="220" y="40" width="64" height="30" rx="7" fill="#dcecd8" stroke="#54A24B" stroke-width="1.6"/>
<circle cx="252" cy="55" r="4" fill="#54A24B"/>
<rect x="288" y="40" width="64" height="30" rx="7" fill="#dcecd8" stroke="#54A24B" stroke-width="1.6"/>
<circle cx="320" cy="55" r="4" fill="#54A24B"/>
<rect x="220" y="74" width="64" height="30" rx="7" fill="#dcecd8" stroke="#54A24B" stroke-width="1.6"/>
<circle cx="252" cy="89" r="4" fill="#54A24B"/>
<rect x="288" y="74" width="64" height="30" rx="7" fill="#dcecd8" stroke="#54A24B" stroke-width="1.6"/>
<circle cx="320" cy="89" r="4" fill="#54A24B"/>
<line x1="218" y1="38" x2="218" y2="106" stroke="#5a6a7a" stroke-width="0.8" stroke-opacity="0.6"/>
<line x1="252" y1="38" x2="252" y2="106" stroke="#5a6a7a" stroke-width="0.8" stroke-opacity="0.6"/>
<line x1="286" y1="38" x2="286" y2="106" stroke="#5a6a7a" stroke-width="0.8" stroke-opacity="0.6"/>
<line x1="320" y1="38" x2="320" y2="106" stroke="#5a6a7a" stroke-width="0.8" stroke-opacity="0.6"/>
<line x1="354" y1="38" x2="354" y2="106" stroke="#5a6a7a" stroke-width="0.8" stroke-opacity="0.6"/>
<line x1="218" y1="38" x2="354" y2="38" stroke="#5a6a7a" stroke-width="0.8" stroke-opacity="0.6"/>
<line x1="218" y1="72" x2="354" y2="72" stroke="#5a6a7a" stroke-width="0.8" stroke-opacity="0.6"/>
<line x1="218" y1="106" x2="354" y2="106" stroke="#5a6a7a" stroke-width="0.8" stroke-opacity="0.6"/>
<text x="286" y="126" font-family="DejaVu Sans, Segoe UI, Helvetica, Arial, sans-serif" font-size="12" fill="#333" text-anchor="middle" font-weight="normal" font-style="normal">a = 2, b = 2</text>
<text x="286" y="144" font-family="DejaVu Sans, Segoe UI, Helvetica, Arial, sans-serif" font-size="11" fill="#555" text-anchor="middle" font-weight="normal" font-style="normal">½ horizontally</text>
<text x="286" y="160" font-family="DejaVu Sans, Segoe UI, Helvetica, Arial, sans-serif" font-size="11" fill="#555" text-anchor="middle" font-weight="normal" font-style="normal">2 values/pixel</text>
<text x="476" y="26" font-family="DejaVu Sans, Segoe UI, Helvetica, Arial, sans-serif" font-size="15" fill="#222" text-anchor="middle" font-weight="bold" font-style="normal">4:2:0</text>
<rect x="410" y="40" width="64" height="64" rx="7" fill="#dcecd8" stroke="#54A24B" stroke-width="1.6"/>
<circle cx="442" cy="72" r="4" fill="#54A24B"/>
<rect x="478" y="40" width="64" height="64" rx="7" fill="#dcecd8" stroke="#54A24B" stroke-width="1.6"/>
<circle cx="510" cy="72" r="4" fill="#54A24B"/>
<line x1="408" y1="38" x2="408" y2="106" stroke="#5a6a7a" stroke-width="0.8" stroke-opacity="0.6"/>
<line x1="442" y1="38" x2="442" y2="106" stroke="#5a6a7a" stroke-width="0.8" stroke-opacity="0.6"/>
<line x1="476" y1="38" x2="476" y2="106" stroke="#5a6a7a" stroke-width="0.8" stroke-opacity="0.6"/>
<line x1="510" y1="38" x2="510" y2="106" stroke="#5a6a7a" stroke-width="0.8" stroke-opacity="0.6"/>
<line x1="544" y1="38" x2="544" y2="106" stroke="#5a6a7a" stroke-width="0.8" stroke-opacity="0.6"/>
<line x1="408" y1="38" x2="544" y2="38" stroke="#5a6a7a" stroke-width="0.8" stroke-opacity="0.6"/>
<line x1="408" y1="72" x2="544" y2="72" stroke="#5a6a7a" stroke-width="0.8" stroke-opacity="0.6"/>
<line x1="408" y1="106" x2="544" y2="106" stroke="#5a6a7a" stroke-width="0.8" stroke-opacity="0.6"/>
<text x="476" y="126" font-family="DejaVu Sans, Segoe UI, Helvetica, Arial, sans-serif" font-size="12" fill="#333" text-anchor="middle" font-weight="normal" font-style="normal">a = 2, b = 0</text>
<text x="476" y="144" font-family="DejaVu Sans, Segoe UI, Helvetica, Arial, sans-serif" font-size="11" fill="#555" text-anchor="middle" font-weight="normal" font-style="normal">½ horizontally and vertically</text>
<text x="476" y="160" font-family="DejaVu Sans, Segoe UI, Helvetica, Arial, sans-serif" font-size="11" fill="#555" text-anchor="middle" font-weight="normal" font-style="normal">1.5 values/pixel</text>
<text x="666" y="26" font-family="DejaVu Sans, Segoe UI, Helvetica, Arial, sans-serif" font-size="15" fill="#222" text-anchor="middle" font-weight="bold" font-style="normal">4:1:1</text>
<rect x="600" y="40" width="132" height="30" rx="7" fill="#dcecd8" stroke="#54A24B" stroke-width="1.6"/>
<circle cx="666" cy="55" r="4" fill="#54A24B"/>
<rect x="600" y="74" width="132" height="30" rx="7" fill="#dcecd8" stroke="#54A24B" stroke-width="1.6"/>
<circle cx="666" cy="89" r="4" fill="#54A24B"/>
<line x1="598" y1="38" x2="598" y2="106" stroke="#5a6a7a" stroke-width="0.8" stroke-opacity="0.6"/>
<line x1="632" y1="38" x2="632" y2="106" stroke="#5a6a7a" stroke-width="0.8" stroke-opacity="0.6"/>
<line x1="666" y1="38" x2="666" y2="106" stroke="#5a6a7a" stroke-width="0.8" stroke-opacity="0.6"/>
<line x1="700" y1="38" x2="700" y2="106" stroke="#5a6a7a" stroke-width="0.8" stroke-opacity="0.6"/>
<line x1="734" y1="38" x2="734" y2="106" stroke="#5a6a7a" stroke-width="0.8" stroke-opacity="0.6"/>
<line x1="598" y1="38" x2="734" y2="38" stroke="#5a6a7a" stroke-width="0.8" stroke-opacity="0.6"/>
<line x1="598" y1="72" x2="734" y2="72" stroke="#5a6a7a" stroke-width="0.8" stroke-opacity="0.6"/>
<line x1="598" y1="106" x2="734" y2="106" stroke="#5a6a7a" stroke-width="0.8" stroke-opacity="0.6"/>
<text x="666" y="126" font-family="DejaVu Sans, Segoe UI, Helvetica, Arial, sans-serif" font-size="12" fill="#333" text-anchor="middle" font-weight="normal" font-style="normal">a = 1, b = 1</text>
<text x="666" y="144" font-family="DejaVu Sans, Segoe UI, Helvetica, Arial, sans-serif" font-size="11" fill="#555" text-anchor="middle" font-weight="normal" font-style="normal">¼ horizontally</text>
<text x="666" y="160" font-family="DejaVu Sans, Segoe UI, Helvetica, Arial, sans-serif" font-size="11" fill="#555" text-anchor="middle" font-weight="normal" font-style="normal">1.5 values/pixel</text>
<text x="856" y="26" font-family="DejaVu Sans, Segoe UI, Helvetica, Arial, sans-serif" font-size="15" fill="#222" text-anchor="middle" font-weight="bold" font-style="normal">4:4:0</text>
<rect x="790" y="40" width="30" height="64" rx="7" fill="#dcecd8" stroke="#54A24B" stroke-width="1.6"/>
<circle cx="805" cy="72" r="4" fill="#54A24B"/>
<rect x="824" y="40" width="30" height="64" rx="7" fill="#dcecd8" stroke="#54A24B" stroke-width="1.6"/>
<circle cx="839" cy="72" r="4" fill="#54A24B"/>
<rect x="858" y="40" width="30" height="64" rx="7" fill="#dcecd8" stroke="#54A24B" stroke-width="1.6"/>
<circle cx="873" cy="72" r="4" fill="#54A24B"/>
<rect x="892" y="40" width="30" height="64" rx="7" fill="#dcecd8" stroke="#54A24B" stroke-width="1.6"/>
<circle cx="907" cy="72" r="4" fill="#54A24B"/>
<line x1="788" y1="38" x2="788" y2="106" stroke="#5a6a7a" stroke-width="0.8" stroke-opacity="0.6"/>
<line x1="822" y1="38" x2="822" y2="106" stroke="#5a6a7a" stroke-width="0.8" stroke-opacity="0.6"/>
<line x1="856" y1="38" x2="856" y2="106" stroke="#5a6a7a" stroke-width="0.8" stroke-opacity="0.6"/>
<line x1="890" y1="38" x2="890" y2="106" stroke="#5a6a7a" stroke-width="0.8" stroke-opacity="0.6"/>
<line x1="924" y1="38" x2="924" y2="106" stroke="#5a6a7a" stroke-width="0.8" stroke-opacity="0.6"/>
<line x1="788" y1="38" x2="924" y2="38" stroke="#5a6a7a" stroke-width="0.8" stroke-opacity="0.6"/>
<line x1="788" y1="72" x2="924" y2="72" stroke="#5a6a7a" stroke-width="0.8" stroke-opacity="0.6"/>
<line x1="788" y1="106" x2="924" y2="106" stroke="#5a6a7a" stroke-width="0.8" stroke-opacity="0.6"/>
<text x="856" y="126" font-family="DejaVu Sans, Segoe UI, Helvetica, Arial, sans-serif" font-size="12" fill="#333" text-anchor="middle" font-weight="normal" font-style="normal">a = 4, b = 0</text>
<text x="856" y="144" font-family="DejaVu Sans, Segoe UI, Helvetica, Arial, sans-serif" font-size="11" fill="#555" text-anchor="middle" font-weight="normal" font-style="normal">½ vertically</text>
<text x="856" y="160" font-family="DejaVu Sans, Segoe UI, Helvetica, Arial, sans-serif" font-size="11" fill="#555" text-anchor="middle" font-weight="normal" font-style="normal">2 values/pixel</text>
</svg>
